<?xml version="1.0" encoding="UTF-8"?>
<svg version="1.1" xmlns="http://www.w3.org/2000/svg" width="400" height="118">
<path d="M0 0 C132 0 264 0 400 0 C400 38.94 400 77.88 400 118 C268 118 136 118 0 118 C0 79.06 0 40.12 0 0 Z " fill="#FDFDFE" transform="translate(0,0)"/>
<path d="M0 0 C3.75212276 2.01502889 5.63644095 3.45466142 8 7 C9.4369169 14.36022841 6.65872413 19.51473317 2.875 25.625 C2.34455078 26.51364746 1.81410156 27.40229492 1.26757812 28.31787109 C0.12821514 30.21978683 -1.02019637 32.11630593 -2.17675781 34.0078125 C-4.06978544 37.11452736 -5.92402664 40.24214945 -7.7734375 43.375 C-9.01426678 45.45914257 -10.25642371 47.54249536 -11.5 49.625 C-12.08668457 50.6145166 -12.67336914 51.6040332 -13.27783203 52.62353516 C-14.11483643 54.00484619 -14.11483643 54.00484619 -14.96875 55.4140625 C-15.45794922 56.2282666 -15.94714844 57.0424707 -16.45117188 57.88134766 C-18.5717378 60.78208396 -20.59575744 62.74376969 -24.18359375 63.3984375 C-28.89131129 63.34948376 -32.31424327 63.25213829 -36 60 C-38.67670182 55.84649718 -39.43533488 52.89173039 -39 48 C-37.59814453 44.91064453 -37.59814453 44.91064453 -35.6328125 41.6328125 C-35.28223282 41.04018616 -34.93165314 40.44755981 -34.57044983 39.8369751 C-33.43479736 37.92497176 -32.28068985 36.02494681 -31.125 34.125 C-30.34066451 32.81644995 -29.55721931 31.50736587 -28.7746582 30.19775391 C-26.87109115 27.02021492 -24.9514844 23.85275501 -23.02557373 20.6887207 C-21.60233826 18.34520592 -20.19479836 15.99233412 -18.78515625 13.640625 C-17.9210839 12.21764747 -17.05539048 10.79565203 -16.1875 9.375 C-15.81061035 8.74996582 -15.4337207 8.12493164 -15.04541016 7.48095703 C-11.1517825 1.23794194 -7.52445932 -1.33125049 0 0 Z " fill="#1D1AFE" transform="translate(64,27)"/>
<path d="M0 0 C27 0 27 0 36 5 C40.32329078 10.20559503 41.73845393 13.91661033 41.35546875 20.67578125 C40.45976101 26.53233183 37.40472539 30.22452109 33 34 C29.51016003 35.67828949 26.77497681 36.24263775 22.91796875 36.1953125 C21.98662109 36.18886719 21.05527344 36.18242188 20.09570312 36.17578125 C19.13599609 36.15902344 18.17628906 36.14226562 17.1875 36.125 C16.20845703 36.11597656 15.22941406 36.10695312 14.22070312 36.09765625 C11.81369652 36.07417326 9.40681636 36.03830477 7 36 C7 42.27 7 48.54 7 55 C4.69 55 2.38 55 0 55 C0 36.85 0 18.7 0 0 Z " fill="#121212" transform="translate(117,28)"/>
<path d="M0 0 C2.31 0 4.62 0 7 0 C11.42193376 8.31433376 15.02097281 16.95028308 18.62109375 25.64086914 C19.62514575 28.06285158 20.636399 30.48173617 21.6484375 32.90039062 C22.29991065 34.46596635 22.95096655 36.03171579 23.6015625 37.59765625 C23.89850006 38.30729019 24.19543762 39.01692413 24.50137329 39.74806213 C26.57070446 44.76051138 28.34380227 49.83691729 30 55 C27.69 55 25.38 55 23 55 C22.16180842 53.37750059 21.3295884 51.75191503 20.5 50.125 C20.0359375 49.22007813 19.571875 48.31515625 19.09375 47.3828125 C18 45 18 45 18 43 C8.76 43.33 -0.48 43.66 -10 44 C-11.65 47.63 -13.3 51.26 -15 55 C-17.31 55 -19.62 55 -22 55 C-21.33464132 50.83846622 -19.98311535 47.27257972 -18.33984375 43.3984375 C-17.94107025 42.45275154 -17.94107025 42.45275154 -17.53424072 41.48796082 C-16.67303533 39.44842437 -15.80533561 37.4117229 -14.9375 35.375 C-14.3456643 33.97666969 -13.75427595 32.57814995 -13.16333008 31.17944336 C-11.99080109 28.40589506 -10.81587443 25.63338422 -9.63867188 22.86181641 C-7.4754682 17.76743095 -5.33171637 12.66489884 -3.1875 7.5625 C-2.12561882 5.04140525 -1.0628608 2.52068196 0 0 Z " fill="#0C0C0C" transform="translate(303,28)"/>
<path d="M0 0 C5.74835579 3.05946973 8.72798114 6.49782261 11.48828125 12.3515625 C12.23046875 15.01171875 12.23046875 15.01171875 12.23046875 22.01171875 C1.01046875 22.01171875 -10.20953125 22.01171875 -21.76953125 22.01171875 C-18.47659831 30.77345092 -18.47659831 30.77345092 -11.76953125 35.01171875 C-7.53366278 35.80230324 -4.54307529 35.50547027 -0.83203125 33.13671875 C1.26930459 31.18574263 1.26930459 31.18574263 2.23046875 29.01171875 C4.87046875 29.01171875 7.51046875 29.01171875 10.23046875 29.01171875 C9.64708021 32.94959136 7.9877527 35.18373522 5.23046875 38.01171875 C-0.62298168 42.27755881 -6.68330774 43.0407063 -13.76953125 42.01171875 C-19.42815568 40.18670438 -23.51148183 35.86348893 -26.76953125 31.01171875 C-29.54568335 25.21306658 -29.85756811 18.97134655 -28.15234375 12.765625 C-25.73578533 7.28025124 -21.61347321 3.44325874 -16.76953125 0.01171875 C-11.20508269 -1.84309744 -5.55771024 -1.98321677 0 0 Z " fill="#0D0D0D" transform="translate(238.76953125,41.98828125)"/>
<path d="M0 0 C5.1088435 -0.59945204 5.1088435 -0.59945204 8 0 C10.23155609 1.96575362 11.48738095 4.33191606 12.875 6.9375 C15.19784919 11.68592349 15.19784919 11.68592349 19 15 C19.26554687 14.28457031 19.53109375 13.56914063 19.8046875 12.83203125 C21.82410477 8.04746419 24.34170394 3.71490412 28 0 C31.07814299 -0.88637625 32.77306392 -0.56612914 36 0 C34.71739291 2.68842119 33.309981 5.10695227 31.58203125 7.53125 C31.13279297 8.17707031 30.68355469 8.82289062 30.22070312 9.48828125 C29.27803115 10.8349555 28.32741385 12.17610113 27.36914062 13.51171875 C26.92376953 14.15753906 26.47839844 14.80335937 26.01953125 15.46875 C25.60807861 16.05076172 25.19662598 16.63277344 24.77270508 17.23242188 C23.73882111 19.59745187 24.07583956 20.61724571 25 23 C26.11186391 24.93293481 26.11186391 24.93293481 27.50390625 26.8203125 C27.99697266 27.52027344 28.49003906 28.22023438 28.99804688 28.94140625 C29.51431641 29.66199219 30.03058594 30.38257812 30.5625 31.125 C31.58883068 32.56211731 32.61118016 34.00208887 33.62890625 35.4453125 C34.08338135 36.07969238 34.53785645 36.71407227 35.00610352 37.36767578 C36 39 36 39 36 41 C31.17282837 42.14096784 31.17282837 42.14096784 28 41 C19 30.97380586 19 30.97380586 19 26 C15.51393429 29.16915065 13.17265899 32.29406631 10.6875 36.3125 C7.66400198 40.8077889 7.66400198 40.8077889 4.7734375 41.64453125 C2.5625 41.625 2.5625 41.625 -1 41 C0.04033108 39.35332211 1.08235447 37.70771339 2.125 36.0625 C2.75535156 35.06089844 3.38570312 34.05929688 4.03515625 33.02734375 C5.26485341 31.13268112 6.53777227 29.2646329 7.87109375 27.44140625 C8.70833984 26.29478516 8.70833984 26.29478516 9.5625 25.125 C10.07941406 24.44695312 10.59632813 23.76890625 11.12890625 23.0703125 C12.25071249 20.98133065 12.25071249 20.98133065 11.40234375 18.5859375 C9.82236125 15.67243216 8.01213882 13.13353463 6 10.5 C3.39107621 7.08537916 1.41528288 4.06893828 0 0 Z " fill="#0A0A0A" transform="translate(173,42)"/>
<path d="M0 0 C2.84625 -0.0825 5.6925 -0.165 8.625 -0.25 C9.51010254 -0.28641602 10.39520508 -0.32283203 11.30712891 -0.36035156 C16.67714356 -0.43528762 19.81539696 0.31754932 24 4 C26.51908654 7.60379236 26.18877323 10.59987532 25.61328125 14.80859375 C24.65775922 18.22291133 22.76434517 19.89383225 20 22 C17.29283758 22.90238747 15.76223232 23.11851302 12.98828125 23.09765625 C11.96408081 23.09390991 11.96408081 23.09390991 10.91918945 23.09008789 C10.05898193 23.08098389 9.19877441 23.07187988 8.3125 23.0625 C4.1978125 23.0315625 4.1978125 23.0315625 0 23 C0 15.41 0 7.82 0 0 Z " fill="#FBFBFB" transform="translate(125,35)"/>
<path d="M0 0 C3.75212276 2.01502889 5.63644095 3.45466142 8 7 C8.79597857 11.48706504 9.16518777 16.02929656 6.78515625 20.0546875 C3.4699736 23.31526714 0.4983791 24.39659954 -4.125 24.625 C-8.53562808 24.34347055 -10.98997221 23.38628126 -14 20 C-16.52013745 16.51981019 -16.36793894 13.19450396 -16 9 C-12.88746319 1.95583774 -7.75143543 -1.53208411 0 0 Z " fill="#1F1CFE" transform="translate(88,66)"/>
<path d="M0 0 C2.64 0 5.28 0 8 0 C8 18.15 8 36.3 8 55 C5.36 55 2.72 55 0 55 C0 36.85 0 18.7 0 0 Z " fill="#1F1F1F" transform="translate(336,28)"/>
<path d="M0 0 C2.31 0 4.62 0 7 0 C7 18.81 7 37.62 7 57 C4.69 57 2.38 57 0 57 C0 38.19 0 19.38 0 0 Z " fill="#101010" transform="translate(255,26)"/>
<path d="M0 0 C2.88904375 1.44452187 3.15886861 3.31839302 4.3828125 6.27734375 C5.04990234 7.88319336 5.04990234 7.88319336 5.73046875 9.52148438 C6.19066406 10.64876953 6.65085937 11.77605469 7.125 12.9375 C7.59292969 14.06091797 8.06085938 15.18433594 8.54296875 16.34179688 C12 24.72232598 12 24.72232598 12 27 C4.74 27 -2.52 27 -10 27 C-9.228603 23.14301498 -8.41217319 20.26030444 -6.93359375 16.69921875 C-6.3293457 15.23452148 -6.3293457 15.23452148 -5.71289062 13.74023438 C-5.29201172 12.73283203 -4.87113281 11.72542969 -4.4375 10.6875 C-4.01275391 9.66076172 -3.58800781 8.63402344 -3.15039062 7.57617188 C-2.10429072 5.04907659 -1.05404084 2.52379106 0 0 Z " fill="#F0F0F0" transform="translate(306,38)"/>
<path d="M0 0 C2.31 0 4.62 0 7 0 C7 13.53 7 27.06 7 41 C4.69 41 2.38 41 0 41 C0 27.47 0 13.94 0 0 Z " fill="#121212" transform="translate(162,42)"/>
<path d="M0 0 C3.625 1.625 3.625 1.625 6 4 C6.33 5.98 6.66 7.96 7 10 C-1.25 10 -9.5 10 -18 10 C-17.06649406 5.3324703 -16.69246923 3.7655683 -13.0078125 0.953125 C-8.83640764 -1.02707497 -4.46996267 -0.70962315 0 0 Z " fill="#F9F9F9" transform="translate(236,48)"/>
<path d="M0 0 C3.29714793 0.32971479 4.6226839 0.6226839 7 3 C6.625 5.625 6.625 5.625 6 8 C0.25 9.125 0.25 9.125 -2 8 C-2.125 5.125 -2.125 5.125 -2 2 C-1.34 1.34 -0.68 0.68 0 0 Z " fill="#161616" transform="translate(163,25)"/>
</svg>
